<?xml version="1.0" encoding="UTF-8"?>
<svg id="Layer_1" xmlns="http://www.w3.org/2000/svg" version="1.1" viewBox="0 0 221.39 221.32">
  <!-- Generator: Adobe Illustrator 29.7.1, SVG Export Plug-In . SVG Version: 2.1.1 Build 8)  -->
  <defs>
    <style>
      .st0, .st1 {
        isolation: isolate;
      }

      .st2 {
        fill: #fff;
      }

      .st3 {
        fill: #f5f5f5;
      }

      .st1 {
        fill: #c551e7;
        font-family: Courier, Courier;
        font-size: 160px;
      }
    </style>
  </defs>
  <circle class="st2" cx="110.62" cy="110.6" r="110.36"/>
  <path class="st3" d="M90.24,94.16c2.92-3.64,6.56-6.43,10.94-8.36,4.38-1.93,9.32-2.89,14.84-2.89,10.47,0,19.19,3.53,26.17,10.59s10.47,15.79,10.47,26.21-3.58,18.96-10.74,26.09c-7.16,7.14-15.9,10.7-26.21,10.7-5.47,0-10.23-.96-14.3-2.89s-7.4-4.84-10-8.75v6.25c0,1.41-.25,2.42-.74,3.05-.5.62-1.32.94-2.46.94h-14.3c-2.03,0-3.54-.47-4.53-1.41s-1.48-2.34-1.48-4.22c0-2.08.6-3.5,1.8-4.26,1.2-.75,3.57-1.13,7.11-1.13h1.64v-80h-1.48c-3.54,0-5.96-.42-7.27-1.25-1.3-.83-1.95-2.29-1.95-4.38,0-1.88.52-3.28,1.56-4.22,1.04-.94,2.58-1.41,4.61-1.41h11.88c1.56,0,2.7.26,3.4.78.7.52,1.05,1.33,1.05,2.42v38.14h-.01ZM114.61,144.24c7.34,0,13.31-2.32,17.89-6.95,4.58-4.63,6.88-10.65,6.88-18.05s-2.33-13.2-6.99-17.89-10.59-7.03-17.77-7.03-13.16,2.33-17.77,6.99-6.91,10.64-6.91,17.93,2.3,13.28,6.91,17.97,10.53,7.03,17.77,7.03h0Z"/>
  <g class="st0">
    <g class="st0">
      <text class="st1" transform="translate(62.61 155.1)"><tspan x="0" y="0">b</tspan></text>
    </g>
  </g>
</svg>